<svg width="35" height="35" viewBox="0 0 35 35" fill="none" xmlns="http://www.w3.org/2000/svg">
<path d="M32.0833 23.6104C32.0833 28.9187 28.9187 32.0833 23.6104 32.0833H21.875C21.0729 32.0833 20.4167 31.427 20.4167 30.625V22.2104C20.4167 21.8166 20.7375 21.4812 21.1312 21.4812L23.6979 21.4375C23.9021 21.4229 24.0771 21.2771 24.1208 21.0729L24.6313 18.2875C24.675 18.025 24.4708 17.777 24.1937 17.777L21.0875 17.8208C20.6791 17.8208 20.3583 17.5 20.3438 17.1062L20.2854 13.5333C20.2854 13.3 20.475 13.0958 20.7229 13.0958L24.2229 13.0375C24.4708 13.0375 24.6604 12.8479 24.6604 12.6L24.6021 9.09994C24.6021 8.85203 24.4125 8.66246 24.1646 8.66246L20.2271 8.72081C17.8062 8.76456 15.8813 10.7479 15.925 13.1687L15.9979 17.1791C16.0125 17.5875 15.6917 17.9083 15.2833 17.9229L13.5333 17.952C13.2854 17.952 13.0958 18.1416 13.0958 18.3895L13.1396 21.1604C13.1396 21.4083 13.3292 21.5979 13.5771 21.5979L15.3271 21.5687C15.7354 21.5687 16.0562 21.8895 16.0708 22.2833L16.2021 30.5958C16.2166 31.4125 15.5604 32.0833 14.7437 32.0833H11.3896C6.08124 32.0833 2.91666 28.9187 2.91666 23.5958V11.3895C2.91666 6.08121 6.08124 2.91663 11.3896 2.91663H23.6104C28.9187 2.91663 32.0833 6.08121 32.0833 11.3895V23.6104Z" fill="#837D87"/>
</svg>
