<svg width="35" height="35" viewBox="0 0 35 35" fill="none" xmlns="http://www.w3.org/2000/svg">
<path d="M31.7041 16.1437C31.6312 15.4 31.0041 14.8458 30.2604 14.8458H19.25C18.4479 14.8458 17.7916 15.502 17.7916 16.3041V18.7979C17.7916 19.6 18.4479 20.2562 19.25 20.2562H25.8271C25.6666 21.5979 24.7916 23.625 22.8521 24.9812C21.6125 25.8416 19.9646 26.4395 17.7916 26.4395C17.6896 26.4395 17.6021 26.4395 17.5 26.425C13.7812 26.3083 10.6312 23.8146 9.49374 20.3875C9.18749 19.4687 9.01248 18.5062 9.01248 17.5C9.01248 16.4937 9.18748 15.5166 9.47915 14.6124C9.56665 14.3499 9.66873 14.0875 9.7854 13.825C11.1271 10.8062 14.0583 8.67705 17.5 8.57497C17.5875 8.56038 17.6896 8.56037 17.7916 8.56037C19.8771 8.56037 21.4375 9.24577 22.5312 10.0041C23.1 10.3979 23.8583 10.3104 24.3541 9.82911L26.3812 7.8458C27.0229 7.21872 26.9646 6.1541 26.2354 5.6291C23.9166 3.92285 21.0875 2.91663 17.7916 2.91663C17.6896 2.91663 17.6021 2.91664 17.5 2.93122C11.9146 3.03331 7.11665 6.27081 4.76873 10.9521C3.77706 12.9354 3.20831 15.152 3.20831 17.5C3.20831 19.8479 3.77706 22.0645 4.76873 24.0479H4.78332C7.13123 28.7291 11.9292 31.9666 17.5 32.0687C17.6021 32.0833 17.6896 32.0833 17.7916 32.0833C21.7291 32.0833 25.0396 30.7854 27.4458 28.5541C30.2021 26.002 31.7917 22.2687 31.7917 17.8208C31.7917 17.1937 31.7625 16.6541 31.7041 16.1437Z" fill="#837D87"/>
</svg>
