<svg width="35" height="35" viewBox="0 0 35 35" fill="none" xmlns="http://www.w3.org/2000/svg">
<path fill-rule="evenodd" clip-rule="evenodd" d="M17.5 2.91663C9.44999 2.91663 2.91666 9.44996 2.91666 17.5C2.91666 25.55 9.44999 32.0833 17.5 32.0833C25.55 32.0833 32.0833 25.55 32.0833 17.5C32.0833 9.44996 25.55 2.91663 17.5 2.91663ZM25.2437 22.327C24.8208 22.5604 24.4708 22.6625 24.1791 22.7354C23.9312 22.7937 23.7271 22.852 23.5521 22.9687C23.3625 23.0854 23.3479 23.2749 23.3187 23.4499C23.2896 23.6104 23.275 23.7416 23.1583 23.8291C23.0271 23.9166 22.7792 23.9312 22.4438 23.9458C22.0063 23.975 21.4521 23.9895 20.7812 24.1937C20.4604 24.3104 20.1687 24.4854 19.8771 24.6604C19.2937 25.025 18.6375 25.4187 17.4854 25.4187C16.3479 25.4187 15.6916 25.025 15.1083 24.6604C14.8166 24.4708 14.525 24.2958 14.1896 24.1791C13.5333 23.9749 12.9646 23.9458 12.5271 23.9312C12.1917 23.9166 11.9583 23.902 11.8125 23.8145C11.6958 23.7416 11.6812 23.5958 11.6521 23.4354C11.6229 23.2604 11.6083 23.0708 11.4187 22.9541C11.2437 22.8374 11.025 22.7791 10.7916 22.7062C10.5 22.6333 10.15 22.5458 9.72709 22.3124C9.23126 22.0354 9.52293 21.875 9.68334 21.7875C12.4979 20.4312 12.9354 18.3312 12.95 18.1708C12.95 18.1562 12.95 18.1562 12.95 18.1416C12.9792 17.9666 12.9937 17.8208 12.7896 17.6312C12.6583 17.5 12.2062 17.2083 11.8416 16.975C11.6812 16.8583 11.5354 16.7708 11.4479 16.727C11.0396 16.4354 10.8646 16.1583 10.9958 15.7937C11.0833 15.5458 11.3167 15.4583 11.55 15.4583C11.6229 15.4583 11.7104 15.4729 11.7688 15.4875C12.0312 15.5458 12.2937 15.6479 12.5271 15.7354C12.6875 15.8083 12.8187 15.8521 12.9208 15.8812C12.95 15.8958 12.9938 15.8958 13.0083 15.8958C13.1542 15.8958 13.1979 15.8229 13.1833 15.677C13.1833 15.6333 13.1833 15.5895 13.1687 15.5458C13.1396 15.0354 13.0958 14.1458 13.1541 13.3291C13.2708 12.1041 13.6646 11.4771 14.1312 10.9521C14.3646 10.6896 15.4292 9.56662 17.4562 9.56662C19.4979 9.56662 20.5479 10.6895 20.7812 10.9375C21.2479 11.477 21.6417 12.0896 21.7583 13.3291C21.8313 14.1896 21.7729 15.1083 21.7291 15.6187V15.6624C21.7146 15.8229 21.7583 15.8812 21.9041 15.8812C21.9333 15.8812 21.9625 15.8812 21.9916 15.8666C22.0937 15.8375 22.225 15.7937 22.3854 15.7354C22.6042 15.6479 22.8666 15.5458 23.1437 15.4875C23.2166 15.4583 23.2896 15.4583 23.3625 15.4583C23.6104 15.4583 23.8291 15.5604 23.9166 15.8083C24.0479 16.1583 23.8729 16.4354 23.4646 16.727C23.3916 16.7854 23.2458 16.8875 23.0708 16.975C22.7208 17.2083 22.2542 17.5 22.1229 17.6312C21.9188 17.8208 21.9333 17.9666 21.9625 18.1416C21.9625 18.1562 21.9625 18.1708 21.9625 18.1708C21.9917 18.3312 22.4291 20.4312 25.2291 21.7875C25.4479 21.875 25.7396 22.05 25.2437 22.327Z" fill="#837D87"/>
</svg>
